<!DOCTYPE svg PUBLIC "-//W3C//DTD SVG 1.1//EN" "http://www.w3.org/Graphics/SVG/1.1/DTD/svg11.dtd">
<!-- Uploaded to: SVG Repo, www.svgrepo.com, Transformed by: SVG Repo Mixer Tools -->
<svg fill="#000000" height="800px" width="800px" version="1.1" id="Layer_1" xmlns="http://www.w3.org/2000/svg" xmlns:xlink="http://www.w3.org/1999/xlink" viewBox="0 0 512.007 512.007" xml:space="preserve">
<g id="SVGRepo_bgCarrier" stroke-width="0"/>
<g id="SVGRepo_tracerCarrier" stroke-linecap="round" stroke-linejoin="round"/>
<g id="SVGRepo_iconCarrier"> <g> <g> <g> <path d="M256.026,76.778h-1.058c-82.884,0-160.742,28.314-208.418,75.853C16.102,183.001,0,218.798,0,256.166 c0,98.33,114.842,178.654,256.009,179.063h0.017c3.755,0,7.279-3.123,8.363-6.716c34.526-113.178,34.449-232.721-0.23-345.702 C263.057,79.236,259.763,76.786,256.026,76.778z"/> <path d="M506.701,324.532l-187.733-76.8c-4.326-1.758-9.353,0.307-11.136,4.668c-1.784,4.361,0.307,9.344,4.668,11.136 l187.733,76.8c1.058,0.427,2.15,0.631,3.234,0.631c3.362,0,6.554-2.005,7.902-5.308 C513.152,331.299,511.061,326.316,506.701,324.532z"/> <path d="M312.501,178.199l187.733,76.8c1.058,0.427,2.15,0.64,3.234,0.64c3.354,0,6.545-2.005,7.902-5.308 c1.783-4.361-0.307-9.344-4.668-11.136l-187.733-76.8c-4.326-1.758-9.353,0.307-11.136,4.676 C306.05,171.432,308.14,176.416,312.501,178.199z"/> <path d="M506.701,409.866l-187.733-76.8c-4.326-1.766-9.353,0.299-11.136,4.668c-1.784,4.361,0.307,9.344,4.668,11.136 l187.733,76.8c1.058,0.427,2.15,0.631,3.234,0.631c3.362,0,6.554-2.005,7.902-5.308 C513.152,416.633,511.061,411.649,506.701,409.866z"/> </g> </g> </g> </g>
</svg>