<!DOCTYPE svg PUBLIC "-//W3C//DTD SVG 1.1//EN" "http://www.w3.org/Graphics/SVG/1.1/DTD/svg11.dtd">
<!-- Uploaded to: SVG Repo, www.svgrepo.com, Transformed by: SVG Repo Mixer Tools -->
<svg height="800px" width="800px" version="1.1" id="Layer_1" xmlns="http://www.w3.org/2000/svg" xmlns:xlink="http://www.w3.org/1999/xlink" viewBox="0 0 512 512" xml:space="preserve" fill="#000000">

<g id="SVGRepo_bgCarrier" stroke-width="0"/>

<g id="SVGRepo_tracerCarrier" stroke-linecap="round" stroke-linejoin="round"/>

<g id="SVGRepo_iconCarrier"> <g> <path style="fill:#181b1f;" d="M384,358.404c-56.465,0-102.4-45.935-102.4-102.4s45.935-102.4,102.4-102.4h12.8v204.8H384z"/> <path style="fill:#181b1f;" d="M115.2,358.404v-204.8H128c56.465,0,102.4,45.935,102.4,102.4s-45.935,102.4-102.4,102.4H115.2z"/> </g> <g> <path style="fill:#d9d9d9;" d="M384,140.804c-63.522,0-115.2,51.678-115.2,115.2s51.678,115.2,115.2,115.2 c14.14,0,25.6-11.46,25.6-25.6v-179.2C409.6,152.265,398.14,140.804,384,140.804z M384,345.604c-49.485,0-89.6-40.115-89.6-89.6 s40.115-89.6,89.6-89.6V345.604z"/> <path style="fill:#d9d9d9;" d="M128,140.804c-14.14,0-25.6,11.46-25.6,25.6v179.2c0,14.14,11.46,25.6,25.6,25.6 c63.522,0,115.2-51.678,115.2-115.2S191.522,140.804,128,140.804z M128,345.604v-179.2c49.485,0,89.6,40.115,89.6,89.6 S177.485,345.604,128,345.604z"/> <path style="fill:#d9d9d9;" d="M499.2,243.204H448c-7.074,0-12.8,5.726-12.8,12.8c0,7.074,5.726,12.8,12.8,12.8h51.2 c7.074,0,12.8-5.726,12.8-12.8C512,248.93,506.274,243.204,499.2,243.204z"/> <path style="fill:#d9d9d9;" d="M448,153.604c3.277,0,6.554-1.246,9.054-3.746l38.4-38.4c5.001-5.001,5.001-13.099,0-18.099 c-5.001-5.001-13.099-5.001-18.099,0l-38.4,38.4c-5.001,5.001-5.001,13.099,0,18.099C441.446,152.358,444.723,153.604,448,153.604z "/> <path style="fill:#d9d9d9;" d="M457.054,362.15c-2.5-2.5-5.777-3.746-9.054-3.746s-6.554,1.246-9.054,3.746 c-5.001,5.001-5.001,13.099,0,18.099l38.4,38.4c5.001,5.001,13.099,5.001,18.099,0s5.001-13.099,0-18.099L457.054,362.15z"/> <path style="fill:#d9d9d9;" d="M64,243.204H12.8c-7.074,0-12.8,5.726-12.8,12.8c0,7.074,5.726,12.8,12.8,12.8H64 c7.074,0,12.8-5.726,12.8-12.8C76.8,248.93,71.074,243.204,64,243.204z"/> <path style="fill:#d9d9d9;" d="M34.654,93.35c-5.001-5.001-13.099-5.001-18.099,0c-5.001,5.001-5.001,13.099,0,18.099l38.4,38.4 c2.492,2.509,5.769,3.755,9.045,3.755c3.277,0,6.554-1.246,9.054-3.746c5.001-5.001,5.001-13.099,0-18.099L34.654,93.35z"/> <path style="fill:#d9d9d9;" d="M64,358.404c-3.277,0-6.554,1.246-9.054,3.746l-38.4,38.4c-5.001,5.001-5.001,13.099,0,18.099 s13.099,5.001,18.099,0l38.4-38.4c5.001-5.001,5.001-13.099,0-18.099C70.554,359.65,67.277,358.404,64,358.404z"/> </g> </g>

</svg>