<!DOCTYPE svg PUBLIC "-//W3C//DTD SVG 1.1//EN" "http://www.w3.org/Graphics/SVG/1.1/DTD/svg11.dtd">
<!-- Uploaded to: SVG Repo, www.svgrepo.com, Transformed by: SVG Repo Mixer Tools -->
<svg fill="#d9d9d9" height="800px" width="800px" version="1.1" id="Layer_1" xmlns="http://www.w3.org/2000/svg" xmlns:xlink="http://www.w3.org/1999/xlink" viewBox="0 0 512.001 512.001" xml:space="preserve" stroke="#d9d9d9">
<g id="SVGRepo_bgCarrier" stroke-width="0"/>
<g id="SVGRepo_tracerCarrier" stroke-linecap="round" stroke-linejoin="round"/>
<g id="SVGRepo_iconCarrier"> <g> <g> <path d="M496.28,112.754l-79.049-21.559c-3.554-0.981-6.501-1.703-11.779-2.914c-2.515-4.207-4.343-7.538-6.191-11.234 l-13.949-27.919c-7.858-15.729-30.302-15.732-38.165-0.006l-11.2,22.4c-0.555,1.11-1.092,2.179-1.612,3.212 C253.853,64.179,172.44,69.689,94.724,91.208l-79.003,21.546c-9.83,2.681-16.392,11.939-15.666,22.102l21.333,298.667 c0.973,13.627,14.326,22.84,27.411,18.913l71.296-21.397c28.025-8.402,56.636-14.139,85.463-17.229L238,464.789 c6.326,9.94,19.511,12.87,29.451,6.545c9.94-6.326,12.87-19.511,6.545-29.451l-19.576-30.762 c46.318-0.154,92.654,6.477,137.491,19.919l71.29,21.395c13.085,3.927,26.438-5.286,27.411-18.913l21.333-298.667 C512.672,124.693,506.11,115.435,496.28,112.754z M350.442,130.801c0.127-0.165,0.25-0.334,0.376-0.499 c5.72-7.427,10.011-14.237,15.469-24.456c2.988,5.235,6.597,11.032,12.106,19.664l0.169,0.264c1.687,2.644,2.556,4.009,3.44,5.41 c0.15,0.239,0.301,0.48,0.46,0.732c0.694,1.099,1.121,2.053,1.344,3.061c0.132,0.603,0.192,1.228,0.192,1.915 c0,11.281-10.264,19.737-21.803,17.357c-8.072-1.67-14.315-10.021-13.708-18.474c0.124-1.756,0.524-2.944,1.503-4.362 C350.129,131.214,350.279,131.011,350.442,130.801z M449.953,403.912l-45.782-13.74c-57.445-17.222-117.144-24.206-176.417-20.957 L124.663,207.216c-6.326-9.94-19.511-12.87-29.451-6.545s-12.87,19.511-6.545,29.451l91.583,143.916 c-24.398,3.621-48.6,8.992-72.413,16.131l-45.789,13.742L43.862,149.304l62.168-16.955 c66.35-18.371,135.573-24.195,204.402-17.422c-0.144,0.311-0.272,0.628-0.41,0.942c-0.052,0.118-0.104,0.236-0.154,0.355 c-0.203,0.475-0.4,0.953-0.588,1.435c-0.053,0.135-0.103,0.271-0.155,0.406c-0.186,0.488-0.369,0.978-0.54,1.473 c-0.019,0.056-0.037,0.113-0.056,0.169c-0.563,1.651-1.039,3.341-1.432,5.07c-0.025,0.111-0.052,0.221-0.077,0.332 c-0.117,0.533-0.224,1.072-0.325,1.613c-0.021,0.111-0.042,0.223-0.062,0.334c-0.105,0.584-0.201,1.173-0.287,1.767 c0,0.001,0,0.001,0,0.002c-0.184,1.267-0.336,2.55-0.432,3.86c-2.135,29.726,18.523,57.33,47.653,63.355 c10.722,2.212,21.191,1.517,30.706-1.464c0.029-0.009,0.057-0.02,0.086-0.029c1.024-0.323,2.038-0.67,3.039-1.045 c0.063-0.024,0.125-0.051,0.189-0.075c0.963-0.365,1.917-0.749,2.857-1.161c0.098-0.043,0.193-0.091,0.291-0.135 c0.902-0.401,1.795-0.818,2.674-1.261c0.122-0.061,0.24-0.13,0.361-0.192c0.849-0.435,1.69-0.884,2.516-1.357 c0.14-0.081,0.276-0.168,0.415-0.25c0.799-0.467,1.591-0.945,2.367-1.447c0.157-0.102,0.308-0.211,0.465-0.315 c0.749-0.495,1.492-0.999,2.218-1.526c0.17-0.124,0.334-0.256,0.504-0.381c0.701-0.52,1.396-1.048,2.074-1.598 c0.181-0.146,0.354-0.301,0.532-0.45c0.654-0.543,1.303-1.092,1.934-1.662c0.188-0.17,0.368-0.349,0.554-0.521 c0.608-0.563,1.212-1.132,1.796-1.72c0.192-0.193,0.375-0.395,0.565-0.591c0.564-0.582,1.123-1.169,1.663-1.773 c0.194-0.217,0.378-0.442,0.568-0.662c0.52-0.599,1.035-1.201,1.532-1.82c0.194-0.242,0.377-0.492,0.567-0.737 c0.475-0.612,0.947-1.227,1.399-1.858c0.192-0.268,0.373-0.544,0.56-0.815c0.431-0.623,0.859-1.248,1.266-1.888 c0.187-0.294,0.363-0.596,0.545-0.893c0.388-0.632,0.773-1.266,1.138-1.914c0.179-0.318,0.346-0.645,0.52-0.967 c0.346-0.641,0.689-1.284,1.012-1.939c0.169-0.343,0.325-0.693,0.488-1.04c0.304-0.649,0.607-1.298,0.888-1.959 c0.157-0.367,0.3-0.742,0.449-1.113c0.263-0.654,0.525-1.309,0.766-1.975c0.142-0.392,0.27-0.79,0.403-1.186 c0.223-0.659,0.444-1.318,0.644-1.987c0.124-0.415,0.234-0.836,0.35-1.255c0.183-0.662,0.364-1.325,0.525-1.996 c0.105-0.439,0.195-0.884,0.291-1.328c0.143-0.662,0.284-1.325,0.405-1.996c0.084-0.463,0.152-0.932,0.225-1.4 c0.103-0.663,0.206-1.325,0.287-1.995c0.059-0.485,0.103-0.975,0.151-1.463c0.065-0.664,0.128-1.327,0.172-1.997 c0.033-0.505,0.049-1.014,0.07-1.523c0.019-0.464,0.055-0.922,0.064-1.388l41.481,11.313L449.953,403.912z"/> </g> </g> </g>
</svg>