<!DOCTYPE svg PUBLIC "-//W3C//DTD SVG 1.1//EN" "http://www.w3.org/Graphics/SVG/1.1/DTD/svg11.dtd">
<!-- Uploaded to: SVG Repo, www.svgrepo.com, Transformed by: SVG Repo Mixer Tools -->
<svg fill="#d9d9d9" version="1.1" id="Layer_1" xmlns="http://www.w3.org/2000/svg" xmlns:xlink="http://www.w3.org/1999/xlink" viewBox="0 0 512 512" xml:space="preserve" width="800px" height="800px" stroke="#d9d9d9">
<g id="SVGRepo_bgCarrier" stroke-width="0"/>
<g id="SVGRepo_tracerCarrier" stroke-linecap="round" stroke-linejoin="round"/>
<g id="SVGRepo_iconCarrier"> <g> <g> <g> <path d="M390.955,86.204c-4.907-0.768-9.907,0.717-13.688,3.977c-3.857,3.319-6.067,8.141-6.067,13.227 c0,7.817,5.239,14.541,13.022,16.742c23.851,6.733,55.245,53.666,55.245,76.117v202.897c0,18.432-13.483,34.193-30.694,35.866 c-9.771,0.939-19.123-2.133-26.342-8.687c-7.142-6.468-11.23-15.684-11.23-25.276V238.933c0-44.177-33.741-80.606-76.8-84.898 V8.533c0-4.71-3.823-8.533-8.533-8.533h-256c-4.71,0-8.533,3.823-8.533,8.533V460.8H12.8c-4.71,0-8.533,3.823-8.533,8.533v34.133 c0,4.71,3.823,8.533,8.533,8.533h290.133c4.71,0,8.533-3.823,8.533-8.533v-34.133c0-4.71-3.823-8.533-8.533-8.533H294.4V206.012 c14.677,3.814,25.6,17.067,25.6,32.922v159.42c0,46.276,34.918,84.864,79.497,87.851c1.98,0.136,3.959,0.196,5.914,0.196 c21.7,0,42.172-8.055,58.172-23.014c17.212-16.102,27.085-38.818,27.085-62.319V204.8h8.533c4.71,0,8.533-3.823,8.533-8.533 C507.733,148.582,441.95,93.841,390.955,86.204z M64,51.2c0-4.71,3.823-8.533,8.533-8.533H243.2c4.71,0,8.533,3.823,8.533,8.533 v119.467c0,4.71-3.823,8.533-8.533,8.533H72.533c-4.71,0-8.533-3.823-8.533-8.533V51.2z M64,238.933 c0-4.71,3.823-8.533,8.533-8.533H243.2c4.71,0,8.533,3.823,8.533,8.533V409.6c0,4.71-3.823,8.533-8.533,8.533H72.533 c-4.71,0-8.533-3.823-8.533-8.533V238.933z M294.4,494.933H21.333v-17.067h8.533h256h8.533V494.933z"/> <path d="M234.667,247.467h-153.6v153.6h153.6V247.467z M200.533,375.467H115.2c-4.71,0-8.533-3.823-8.533-8.533 s3.823-8.533,8.533-8.533h85.333c4.71,0,8.533,3.823,8.533,8.533S205.244,375.467,200.533,375.467z M200.533,332.8H115.2 c-4.71,0-8.533-3.823-8.533-8.533s3.823-8.533,8.533-8.533h85.333c4.71,0,8.533,3.823,8.533,8.533S205.244,332.8,200.533,332.8z M200.533,290.133H115.2c-4.71,0-8.533-3.823-8.533-8.533s3.823-8.533,8.533-8.533h85.333c4.71,0,8.533,3.823,8.533,8.533 S205.244,290.133,200.533,290.133z"/> <rect x="81.062" y="59.733" width="153.6" height="102.4"/> </g> </g> </g> </g>
</svg>