<!DOCTYPE svg PUBLIC "-//W3C//DTD SVG 1.1//EN" "http://www.w3.org/Graphics/SVG/1.1/DTD/svg11.dtd">
<!-- Uploaded to: SVG Repo, www.svgrepo.com, Transformed by: SVG Repo Mixer Tools -->
<svg height="800px" width="800px" version="1.1" id="Layer_1" xmlns="http://www.w3.org/2000/svg" xmlns:xlink="http://www.w3.org/1999/xlink" viewBox="0 0 512 512" xml:space="preserve" fill="#000000">
<g id="SVGRepo_bgCarrier" stroke-width="0"/>
<g id="SVGRepo_tracerCarrier" stroke-linecap="round" stroke-linejoin="round"/>
<g id="SVGRepo_iconCarrier"> <path style="fill:#181b1f;" d="M208.205,440.132C90.539,393.284,12.8,362.334,12.8,256S90.539,118.716,208.205,71.868l27.085-10.812 l5.76,8.644c54.554,81.835,54.554,290.765,0,372.599l-5.76,8.644L208.205,440.132z"/> <g> <path style="fill:#d9d9d9;" d="M345.6,102.4h153.6c7.074,0,12.8-5.726,12.8-12.8c0-7.074-5.726-12.8-12.8-12.8H345.6 c-7.074,0-12.8,5.726-12.8,12.8C332.8,96.674,338.526,102.4,345.6,102.4z"/> <path style="fill:#d9d9d9;" d="M499.2,243.2H345.6c-7.074,0-12.8,5.726-12.8,12.8c0,7.074,5.726,12.8,12.8,12.8h153.6 c7.074,0,12.8-5.726,12.8-12.8C512,248.926,506.274,243.2,499.2,243.2z"/> <path style="fill:#d9d9d9;" d="M499.2,409.6H345.6c-7.074,0-12.8,5.726-12.8,12.8s5.726,12.8,12.8,12.8h153.6 c7.074,0,12.8-5.726,12.8-12.8S506.274,409.6,499.2,409.6z"/> <path style="fill:#d9d9d9;" d="M499.2,326.4H345.6c-7.074,0-12.8,5.726-12.8,12.8s5.726,12.8,12.8,12.8h153.6 c7.074,0,12.8-5.726,12.8-12.8S506.274,326.4,499.2,326.4z"/> <path style="fill:#d9d9d9;" d="M499.2,160H345.6c-7.074,0-12.8,5.726-12.8,12.8c0,7.074,5.726,12.8,12.8,12.8h153.6 c7.074,0,12.8-5.726,12.8-12.8C512,165.726,506.274,160,499.2,160z"/> <path style="fill:#d9d9d9;" d="M230.391,51.2c-3.183,0-6.4,0.597-9.498,1.835l-17.417,6.946C85.35,107.008,0,140.979,0,256 s85.35,148.992,203.469,196.019l17.417,6.946c3.106,1.246,6.323,1.835,9.506,1.835c8.363,0,16.444-4.105,21.308-11.401 c56.636-84.949,56.636-301.85,0-386.799C246.835,55.305,238.754,51.2,230.391,51.2z M230.4,435.2C102.4,384,25.6,358.4,25.6,256 s76.8-128,204.8-179.2C281.6,153.6,281.6,358.4,230.4,435.2z"/> </g> </g>
</svg>