<!DOCTYPE svg PUBLIC "-//W3C//DTD SVG 1.1//EN" "http://www.w3.org/Graphics/SVG/1.1/DTD/svg11.dtd">
<!-- Uploaded to: SVG Repo, www.svgrepo.com, Transformed by: SVG Repo Mixer Tools -->
<svg fill="#d9d9d9" height="800px" width="800px" version="1.1" id="Capa_1" xmlns="http://www.w3.org/2000/svg" xmlns:xlink="http://www.w3.org/1999/xlink" viewBox="0 0 297.363 297.363" xml:space="preserve" stroke="#d9d9d9">
<g id="SVGRepo_bgCarrier" stroke-width="0"/>
<g id="SVGRepo_tracerCarrier" stroke-linecap="round" stroke-linejoin="round"/>
<g id="SVGRepo_iconCarrier"> <g> <path d="M157.364,216.314L105.469,91.6c-1.455-3.462-5.336-5.364-9.005-4.247c-3.924,1.188-6.137,5.331-4.945,9.251l39.235,129.197 c-1.14,2.493-1.813,5.241-1.813,8.162c0,10.904,8.841,19.746,19.741,19.746c10.903,0,19.744-8.842,19.744-19.746 C168.426,226.192,163.89,219.535,157.364,216.314z"/> <g> <path d="M297.022,89.474c-0.708-2.767-2.487-5.139-4.95-6.595c-43.396-25.66-92.981-39.226-143.39-39.226 c-50.411,0-99.994,13.565-143.392,39.226c-2.462,1.456-4.24,3.828-4.95,6.595c-0.714,2.767-0.294,5.703,1.157,8.162 l71.283,120.539c3.042,5.13,9.641,6.826,14.756,3.795c7.544-4.461,15.623-7.813,23.916-10.438L77.816,100.767 c-1.689-5.562-1.11-11.446,1.631-16.571c2.735-5.115,7.298-8.858,12.847-10.543c2.05-0.625,4.174-0.941,6.311-0.941 c8.783,0,16.66,5.235,20.066,13.339l0.011,0.024l0.01,0.022l50.83,121.002c13.876,2.44,28.079,7.641,40.305,14.871 c1.722,1.016,3.605,1.498,5.472,1.498c3.683,0,7.27-1.891,9.284-5.293l71.283-120.539 C297.317,95.177,297.736,92.24,297.022,89.474z"/> </g> </g> </g>
</svg>