<!DOCTYPE svg PUBLIC "-//W3C//DTD SVG 1.1//EN" "http://www.w3.org/Graphics/SVG/1.1/DTD/svg11.dtd">
<!-- Uploaded to: SVG Repo, www.svgrepo.com, Transformed by: SVG Repo Mixer Tools -->
<svg version="1.1" id="Uploaded to svgrepo.com" xmlns="http://www.w3.org/2000/svg" xmlns:xlink="http://www.w3.org/1999/xlink" width="800px" height="800px" viewBox="0 0 32 32" xml:space="preserve" fill="#000000">
<g id="SVGRepo_bgCarrier" stroke-width="0"/>
<g id="SVGRepo_tracerCarrier" stroke-linecap="round" stroke-linejoin="round"/>
<g id="SVGRepo_iconCarrier"> <style type="text/css"> .puchipuchi_een{fill:#d9d9d9;} </style> <path class="puchipuchi_een" d="M20,19.26V4c0-2.209-1.791-4-4-4s-4,1.791-4,4v15.26c-1.812,1.265-3,3.362-3,5.74 c0,3.866,3.134,7,7,7s7-3.134,7-7C23,22.622,21.812,20.525,20,19.26z M16,28c-1.657,0-3-1.343-3-3c0-1.304,0.837-2.403,2-2.816V18 c0-0.553,0.447-1,1-1s1,0.447,1,1v4.184c1.163,0.413,2,1.512,2,2.816C19,26.657,17.657,28,16,28z"/> </g>
</svg>